<svg width="113" height="13" viewBox="0 0 113 13" fill="none" xmlns="http://www.w3.org/2000/svg">
<path d="M27 11.58V3.06H29.892C30.796 3.06 31.548 3.252 32.148 3.636C32.756 4.012 33.212 4.524 33.516 5.172C33.82 5.812 33.972 6.524 33.972 7.308C33.972 8.172 33.804 8.924 33.468 9.564C33.14 10.204 32.668 10.7 32.052 11.052C31.444 11.404 30.724 11.58 29.892 11.58H27ZM33.132 7.308C33.132 6.628 33.004 6.024 32.748 5.496C32.5 4.968 32.136 4.556 31.656 4.26C31.176 3.956 30.588 3.804 29.892 3.804H27.84V10.836H29.892C30.596 10.836 31.188 10.68 31.668 10.368C32.148 10.056 32.512 9.636 32.76 9.108C33.008 8.572 33.132 7.972 33.132 7.308Z" fill="#F6F7F9"/>
<path d="M35.5781 11.58V3.06H36.4181V11.58H35.5781Z" fill="#F6F7F9"/>
<path d="M41.9867 11.64C41.3867 11.64 40.8427 11.52 40.3547 11.28C39.8667 11.04 39.4467 10.716 39.0947 10.308C38.7427 9.892 38.4707 9.428 38.2787 8.916C38.0867 8.396 37.9907 7.864 37.9907 7.32C37.9907 6.752 38.0907 6.212 38.2907 5.7C38.4907 5.18 38.7707 4.72 39.1307 4.32C39.4987 3.912 39.9267 3.592 40.4147 3.36C40.9027 3.12 41.4307 3 41.9987 3C42.5987 3 43.1427 3.124 43.6307 3.372C44.1187 3.62 44.5347 3.952 44.8787 4.368C45.2307 4.784 45.5027 5.248 45.6947 5.76C45.8867 6.272 45.9827 6.796 45.9827 7.332C45.9827 7.9 45.8827 8.444 45.6827 8.964C45.4827 9.476 45.2027 9.936 44.8427 10.344C44.4827 10.744 44.0587 11.06 43.5707 11.292C43.0827 11.524 42.5547 11.64 41.9867 11.64ZM38.8307 7.32C38.8307 7.784 38.9067 8.232 39.0587 8.664C39.2107 9.088 39.4267 9.468 39.7067 9.804C39.9867 10.132 40.3187 10.396 40.7027 10.596C41.0947 10.788 41.5227 10.884 41.9867 10.884C42.4747 10.884 42.9107 10.784 43.2947 10.584C43.6867 10.376 44.0187 10.104 44.2907 9.768C44.5707 9.424 44.7827 9.04 44.9267 8.616C45.0707 8.192 45.1427 7.76 45.1427 7.32C45.1427 6.856 45.0667 6.412 44.9147 5.988C44.7627 5.564 44.5427 5.184 44.2547 4.848C43.9747 4.512 43.6427 4.248 43.2587 4.056C42.8747 3.864 42.4507 3.768 41.9867 3.768C41.5067 3.768 41.0707 3.868 40.6787 4.068C40.2947 4.268 39.9627 4.54 39.6827 4.884C39.4107 5.22 39.1987 5.6 39.0467 6.024C38.9027 6.448 38.8307 6.88 38.8307 7.32Z" fill="#F6F7F9"/>
<path d="M50.9864 11.64C50.4184 11.64 49.8904 11.52 49.4024 11.28C48.9144 11.032 48.4904 10.7 48.1304 10.284C47.7704 9.868 47.4904 9.404 47.2904 8.892C47.0984 8.38 47.0024 7.852 47.0024 7.308C47.0024 6.732 47.0984 6.188 47.2904 5.676C47.4904 5.156 47.7664 4.696 48.1184 4.296C48.4704 3.896 48.8864 3.58 49.3664 3.348C49.8464 3.116 50.3704 3 50.9384 3C51.7784 3 52.4624 3.172 52.9904 3.516C53.5184 3.86 53.9184 4.308 54.1904 4.86L53.5424 5.292C53.2704 4.764 52.9064 4.376 52.4504 4.128C51.9944 3.88 51.4864 3.756 50.9264 3.756C50.4544 3.756 50.0264 3.856 49.6424 4.056C49.2664 4.256 48.9424 4.524 48.6704 4.86C48.3984 5.196 48.1904 5.576 48.0464 6C47.9104 6.424 47.8424 6.864 47.8424 7.32C47.8424 7.8 47.9224 8.256 48.0824 8.688C48.2424 9.112 48.4704 9.492 48.7664 9.828C49.0624 10.156 49.4024 10.416 49.7864 10.608C50.1784 10.792 50.5984 10.884 51.0464 10.884C51.5664 10.884 52.0584 10.756 52.5224 10.5C52.9864 10.236 53.4304 9.832 53.8544 9.288V10.176C53.0464 11.152 52.0904 11.64 50.9864 11.64ZM53.7224 8.04H51.8264V7.392H54.4304V11.58H53.7224V8.04Z" fill="#F6F7F9"/>
<path d="M59.5882 11.64C58.9882 11.64 58.4443 11.52 57.9562 11.28C57.4682 11.04 57.0483 10.716 56.6963 10.308C56.3443 9.892 56.0722 9.428 55.8802 8.916C55.6882 8.396 55.5923 7.864 55.5923 7.32C55.5923 6.752 55.6922 6.212 55.8923 5.7C56.0923 5.18 56.3722 4.72 56.7323 4.32C57.1003 3.912 57.5282 3.592 58.0163 3.36C58.5042 3.12 59.0322 3 59.6003 3C60.2002 3 60.7443 3.124 61.2323 3.372C61.7202 3.62 62.1362 3.952 62.4803 4.368C62.8323 4.784 63.1042 5.248 63.2962 5.76C63.4883 6.272 63.5843 6.796 63.5843 7.332C63.5843 7.9 63.4843 8.444 63.2843 8.964C63.0843 9.476 62.8043 9.936 62.4443 10.344C62.0843 10.744 61.6602 11.06 61.1722 11.292C60.6842 11.524 60.1562 11.64 59.5882 11.64ZM56.4323 7.32C56.4323 7.784 56.5082 8.232 56.6602 8.664C56.8123 9.088 57.0282 9.468 57.3083 9.804C57.5883 10.132 57.9202 10.396 58.3043 10.596C58.6963 10.788 59.1242 10.884 59.5882 10.884C60.0762 10.884 60.5123 10.784 60.8963 10.584C61.2883 10.376 61.6203 10.104 61.8923 9.768C62.1722 9.424 62.3843 9.04 62.5283 8.616C62.6723 8.192 62.7443 7.76 62.7443 7.32C62.7443 6.856 62.6683 6.412 62.5163 5.988C62.3643 5.564 62.1442 5.184 61.8563 4.848C61.5763 4.512 61.2442 4.248 60.8602 4.056C60.4762 3.864 60.0522 3.768 59.5882 3.768C59.1082 3.768 58.6723 3.868 58.2803 4.068C57.8962 4.268 57.5643 4.54 57.2843 4.884C57.0123 5.22 56.8003 5.6 56.6483 6.024C56.5042 6.448 56.4323 6.88 56.4323 7.32Z" fill="#F6F7F9"/>
<path d="M68.2266 11.58V3.06H71.7546C72.1226 3.06 72.4586 3.136 72.7626 3.288C73.0746 3.44 73.3426 3.648 73.5666 3.912C73.7906 4.168 73.9666 4.456 74.0946 4.776C74.2226 5.088 74.2866 5.408 74.2866 5.736C74.2866 6.2 74.1826 6.64 73.9746 7.056C73.7746 7.464 73.4906 7.796 73.1226 8.052C72.7546 8.308 72.3226 8.436 71.8266 8.436H69.0666V11.58H68.2266ZM69.0666 7.692H71.7906C72.1266 7.692 72.4186 7.6 72.6666 7.416C72.9146 7.232 73.1066 6.992 73.2426 6.696C73.3786 6.4 73.4466 6.08 73.4466 5.736C73.4466 5.384 73.3666 5.06 73.2066 4.764C73.0466 4.468 72.8346 4.236 72.5706 4.068C72.3146 3.892 72.0306 3.804 71.7186 3.804H69.0666V7.692Z" fill="#F6F7F9"/>
<path d="M77.7455 3.06H78.4535L81.9935 11.58H81.1055L80.0015 8.916H76.1735L75.0815 11.58H74.1815L77.7455 3.06ZM79.8095 8.256L78.0935 4.044L76.3535 8.256H79.8095Z" fill="#F6F7F9"/>
<path d="M88.0777 4.656C87.9577 4.52 87.8177 4.4 87.6577 4.296C87.4977 4.184 87.3177 4.088 87.1177 4.008C86.9177 3.928 86.7017 3.864 86.4697 3.816C86.2457 3.768 86.0057 3.744 85.7497 3.744C85.0057 3.744 84.4577 3.888 84.1057 4.176C83.7617 4.456 83.5897 4.84 83.5897 5.328C83.5897 5.664 83.6697 5.928 83.8297 6.12C83.9977 6.312 84.2577 6.468 84.6097 6.588C84.9617 6.708 85.4097 6.832 85.9537 6.96C86.5617 7.088 87.0857 7.24 87.5257 7.416C87.9657 7.592 88.3057 7.832 88.5457 8.136C88.7857 8.432 88.9057 8.836 88.9057 9.348C88.9057 9.74 88.8297 10.08 88.6777 10.368C88.5257 10.656 88.3137 10.896 88.0417 11.088C87.7697 11.28 87.4457 11.424 87.0697 11.52C86.6937 11.608 86.2817 11.652 85.8337 11.652C85.3937 11.652 84.9697 11.608 84.5617 11.52C84.1617 11.424 83.7817 11.288 83.4217 11.112C83.0617 10.928 82.7257 10.696 82.4137 10.416L82.8337 9.732C82.9857 9.892 83.1657 10.044 83.3737 10.188C83.5897 10.324 83.8257 10.448 84.0817 10.56C84.3457 10.672 84.6257 10.76 84.9217 10.824C85.2257 10.88 85.5377 10.908 85.8577 10.908C86.5377 10.908 87.0657 10.784 87.4417 10.536C87.8257 10.288 88.0177 9.92 88.0177 9.432C88.0177 9.08 87.9217 8.8 87.7297 8.592C87.5377 8.376 87.2497 8.2 86.8657 8.064C86.4817 7.928 86.0097 7.796 85.4497 7.668C84.8577 7.532 84.3577 7.38 83.9497 7.212C83.5417 7.044 83.2337 6.824 83.0257 6.552C82.8257 6.272 82.7257 5.904 82.7257 5.448C82.7257 4.92 82.8537 4.476 83.1097 4.116C83.3737 3.748 83.7337 3.472 84.1897 3.288C84.6457 3.096 85.1697 3 85.7617 3C86.1377 3 86.4857 3.04 86.8057 3.12C87.1337 3.192 87.4337 3.3 87.7057 3.444C87.9857 3.588 88.2457 3.768 88.4857 3.984L88.0777 4.656Z" fill="#F6F7F9"/>
<path d="M95.3667 4.656C95.2467 4.52 95.1067 4.4 94.9467 4.296C94.7867 4.184 94.6067 4.088 94.4067 4.008C94.2067 3.928 93.9907 3.864 93.7587 3.816C93.5347 3.768 93.2947 3.744 93.0387 3.744C92.2947 3.744 91.7467 3.888 91.3947 4.176C91.0507 4.456 90.8787 4.84 90.8787 5.328C90.8787 5.664 90.9587 5.928 91.1187 6.12C91.2867 6.312 91.5467 6.468 91.8987 6.588C92.2507 6.708 92.6987 6.832 93.2427 6.96C93.8507 7.088 94.3747 7.24 94.8147 7.416C95.2547 7.592 95.5947 7.832 95.8347 8.136C96.0747 8.432 96.1947 8.836 96.1947 9.348C96.1947 9.74 96.1187 10.08 95.9667 10.368C95.8147 10.656 95.6027 10.896 95.3307 11.088C95.0587 11.28 94.7347 11.424 94.3587 11.52C93.9827 11.608 93.5707 11.652 93.1227 11.652C92.6827 11.652 92.2587 11.608 91.8507 11.52C91.4507 11.424 91.0707 11.288 90.7107 11.112C90.3507 10.928 90.0147 10.696 89.7027 10.416L90.1227 9.732C90.2747 9.892 90.4547 10.044 90.6627 10.188C90.8787 10.324 91.1147 10.448 91.3707 10.56C91.6347 10.672 91.9147 10.76 92.2107 10.824C92.5147 10.88 92.8267 10.908 93.1467 10.908C93.8267 10.908 94.3547 10.784 94.7307 10.536C95.1147 10.288 95.3067 9.92 95.3067 9.432C95.3067 9.08 95.2107 8.8 95.0187 8.592C94.8267 8.376 94.5387 8.2 94.1547 8.064C93.7707 7.928 93.2987 7.796 92.7387 7.668C92.1467 7.532 91.6467 7.38 91.2387 7.212C90.8307 7.044 90.5227 6.824 90.3147 6.552C90.1147 6.272 90.0147 5.904 90.0147 5.448C90.0147 4.92 90.1427 4.476 90.3987 4.116C90.6627 3.748 91.0227 3.472 91.4787 3.288C91.9347 3.096 92.4587 3 93.0507 3C93.4267 3 93.7747 3.04 94.0947 3.12C94.4227 3.192 94.7227 3.3 94.9947 3.444C95.2747 3.588 95.5347 3.768 95.7747 3.984L95.3667 4.656Z" fill="#F6F7F9"/>
<path d="M101.108 11.64C100.508 11.64 99.9638 11.52 99.4758 11.28C98.9878 11.04 98.5678 10.716 98.2158 10.308C97.8638 9.892 97.5918 9.428 97.3998 8.916C97.2078 8.396 97.1118 7.864 97.1118 7.32C97.1118 6.752 97.2118 6.212 97.4118 5.7C97.6118 5.18 97.8918 4.72 98.2518 4.32C98.6198 3.912 99.0478 3.592 99.5358 3.36C100.024 3.12 100.552 3 101.12 3C101.72 3 102.264 3.124 102.752 3.372C103.24 3.62 103.656 3.952 104 4.368C104.352 4.784 104.624 5.248 104.816 5.76C105.008 6.272 105.104 6.796 105.104 7.332C105.104 7.9 105.004 8.444 104.804 8.964C104.604 9.476 104.324 9.936 103.964 10.344C103.604 10.744 103.18 11.06 102.692 11.292C102.204 11.524 101.676 11.64 101.108 11.64ZM97.9518 7.32C97.9518 7.784 98.0278 8.232 98.1798 8.664C98.3318 9.088 98.5478 9.468 98.8278 9.804C99.1078 10.132 99.4398 10.396 99.8238 10.596C100.216 10.788 100.644 10.884 101.108 10.884C101.596 10.884 102.032 10.784 102.416 10.584C102.808 10.376 103.14 10.104 103.412 9.768C103.692 9.424 103.904 9.04 104.048 8.616C104.192 8.192 104.264 7.76 104.264 7.32C104.264 6.856 104.188 6.412 104.036 5.988C103.884 5.564 103.664 5.184 103.376 4.848C103.096 4.512 102.764 4.248 102.38 4.056C101.996 3.864 101.572 3.768 101.108 3.768C100.628 3.768 100.192 3.868 99.7998 4.068C99.4158 4.268 99.0838 4.54 98.8038 4.884C98.5318 5.22 98.3198 5.6 98.1678 6.024C98.0238 6.448 97.9518 6.88 97.9518 7.32Z" fill="#F6F7F9"/>
<path d="M111.668 4.656C111.548 4.52 111.408 4.4 111.247 4.296C111.087 4.184 110.907 4.088 110.707 4.008C110.507 3.928 110.292 3.864 110.06 3.816C109.836 3.768 109.595 3.744 109.34 3.744C108.595 3.744 108.048 3.888 107.696 4.176C107.352 4.456 107.179 4.84 107.179 5.328C107.179 5.664 107.259 5.928 107.42 6.12C107.588 6.312 107.848 6.468 108.2 6.588C108.551 6.708 109 6.832 109.544 6.96C110.152 7.088 110.675 7.24 111.116 7.416C111.556 7.592 111.896 7.832 112.135 8.136C112.375 8.432 112.495 8.836 112.495 9.348C112.495 9.74 112.42 10.08 112.268 10.368C112.116 10.656 111.904 10.896 111.632 11.088C111.359 11.28 111.035 11.424 110.66 11.52C110.284 11.608 109.871 11.652 109.424 11.652C108.983 11.652 108.559 11.608 108.151 11.52C107.751 11.424 107.371 11.288 107.011 11.112C106.651 10.928 106.315 10.696 106.004 10.416L106.424 9.732C106.576 9.892 106.756 10.044 106.964 10.188C107.18 10.324 107.416 10.448 107.672 10.56C107.936 10.672 108.215 10.76 108.511 10.824C108.815 10.88 109.128 10.908 109.448 10.908C110.128 10.908 110.656 10.784 111.032 10.536C111.416 10.288 111.607 9.92 111.607 9.432C111.607 9.08 111.512 8.8 111.32 8.592C111.128 8.376 110.84 8.2 110.455 8.064C110.071 7.928 109.599 7.796 109.039 7.668C108.447 7.532 107.947 7.38 107.539 7.212C107.132 7.044 106.824 6.824 106.616 6.552C106.416 6.272 106.315 5.904 106.315 5.448C106.315 4.92 106.444 4.476 106.7 4.116C106.964 3.748 107.324 3.472 107.78 3.288C108.236 3.096 108.759 3 109.352 3C109.728 3 110.076 3.04 110.396 3.12C110.724 3.192 111.023 3.3 111.296 3.444C111.576 3.588 111.836 3.768 112.076 3.984L111.668 4.656Z" fill="#F6F7F9"/>
<path d="M6.93878 13L7.52381 11.4372L0 7.60638V6.2234L5.85034 3.25V4.49468L1.63265 6.58298C1.47846 6.66596 1.33787 6.73511 1.21088 6.79043C1.0839 6.84575 0.988663 6.88262 0.92517 6.90106C0.988663 6.9195 1.0839 6.95638 1.21088 7.0117C1.33787 7.06702 1.47846 7.13617 1.63265 7.21915L7.90476 10.4L9.25926 7.0117L11.7687 0H13.7037L12.5926 2.29412L20 6.2234V7.60638L14.1497 10.5798V9.3766L18.3673 7.27447C18.5397 7.19149 18.6984 7.12234 18.8435 7.06702C18.9977 7.00248 19.1111 6.96099 19.1837 6.94255C19.102 6.92411 18.9841 6.88723 18.8299 6.83192C18.6757 6.76738 18.5215 6.69362 18.3673 6.61064L12.2222 3.25L8.51852 13H6.93878Z" fill="#F6F7F9"/>
</svg>
