<svg width="64" height="64" viewBox="0 0 64 64" fill="none" xmlns="http://www.w3.org/2000/svg">
<path d="M24.6531 47L26.0571 43.2734L8 34.1383V30.8404L22.0408 23.75V26.7181L11.9184 31.6979C11.5483 31.8957 11.2109 32.0606 10.9061 32.1926C10.6014 32.3245 10.3728 32.4124 10.2204 32.4564C10.3728 32.5004 10.6014 32.5883 10.9061 32.7202C11.2109 32.8521 11.5483 33.017 11.9184 33.2149L26.9714 40.8L30.2222 32.7202L36.2449 16H40.8889L38.2222 21.4706L56 30.8404V34.1383L41.9592 41.2287V38.3596L52.0816 33.3468C52.4952 33.1489 52.8762 32.984 53.2245 32.8521C53.5946 32.6982 53.8667 32.5993 54.0408 32.5553C53.8449 32.5113 53.5619 32.4234 53.1918 32.2915C52.8218 32.1376 52.4517 31.9617 52.0816 31.7638L37.3333 23.75L28.4444 47H24.6531Z" fill="#252A34"/>
</svg>