<svg width="48" height="48" viewBox="0 0 48 48" fill="none" xmlns="http://www.w3.org/2000/svg">
<g clip-path="url(#clip0_33_134)">
<path d="M36.75 0H11.25C5.0368 0 0 5.0368 0 11.25V36.75C0 42.9632 5.0368 48 11.25 48H36.75C42.9632 48 48 42.9632 48 36.75V11.25C48 5.0368 42.9632 0 36.75 0Z" fill="#313339"/>
<path fill-rule="evenodd" clip-rule="evenodd" d="M37.853 20.6871C38.2471 22.6023 38.2097 24.4923 37.8845 26.3059C37.5549 28.1458 36.8848 29.8857 35.9324 31.4596C35.553 32.0872 35.1337 32.6904 34.6734 33.2642C34.2147 33.8325 33.7189 34.3756 33.1833 34.8815C31.6087 36.3705 29.7009 37.5562 27.4874 38.2298C25.7354 38.7798 23.962 38.9857 22.2328 38.8702C20.4119 38.7466 18.6506 38.2848 17.0258 37.5247L16.8672 37.829C18.4855 38.7544 20.2728 39.3753 22.1465 39.6584C23.9827 39.9365 25.8943 39.8798 27.8152 39.4532C30.3074 38.8709 32.5269 37.7301 34.343 36.1663C34.9717 35.6254 35.5475 35.0282 36.0675 34.3906C36.589 33.7475 37.0554 33.0613 37.4535 32.338C38.4403 30.5486 39.0694 28.5554 39.2474 26.4868C39.4171 24.5211 39.1748 22.4972 38.5147 20.5098L37.853 20.6871Z" fill="#0090DD"/>
<path fill-rule="evenodd" clip-rule="evenodd" d="M12.6749 33.9442C11.9498 33.1494 11.3015 32.2711 10.7638 31.3079C10.2398 30.3686 9.82237 29.3555 9.51135 28.2812C9.39217 27.7444 9.30056 27.2128 9.24699 26.6785C9.02836 24.4922 9.3823 22.3689 10.0776 20.3907C10.4503 19.3295 10.9467 18.3257 11.5152 17.363C12.2699 16.0837 13.1664 14.8871 14.2518 13.8514C15.8484 12.3288 17.7854 11.1152 20.0362 10.4215C21.8682 9.85763 23.7244 9.64972 25.5249 9.81656C26.7757 9.93191 28.0024 10.2047 29.1528 10.6615C30.4548 11.1784 31.654 11.9291 32.7338 12.8201C33.7954 13.6958 34.7202 14.739 35.499 15.8994C35.6014 16.0532 35.6695 16.2287 35.7967 16.3633C35.8948 16.4654 36.0077 16.5056 36.1229 16.5879L36.5885 16.292C36.5602 16.1461 36.5625 16.0222 36.5015 15.8875C36.4212 15.7102 36.2696 15.5772 36.1492 15.4257C34.8775 13.8261 33.3064 12.5282 31.553 11.551C30.8059 11.1346 30.0248 10.7826 29.2249 10.4786C28.3415 10.1415 27.4329 9.864 26.4986 9.66891C24.3641 9.22412 22.1102 9.18876 19.8449 9.70768C17.3891 10.2701 15.1994 11.3803 13.4055 12.913C12.1579 13.9796 11.0824 15.2367 10.2824 16.6515C9.68207 17.7133 9.24281 18.8653 8.95079 20.0559C8.4255 22.2 8.42132 24.4686 8.89434 26.7327C9.00655 27.2688 9.137 27.8027 9.30519 28.3364C9.57819 29.4436 9.97351 30.4878 10.4571 31.4681C10.9601 32.4885 11.5601 33.4375 12.2556 34.3031L12.6749 33.9442Z" fill="#0090DD"/>
<path fill-rule="evenodd" clip-rule="evenodd" d="M34.9234 17.7772C35.1365 16.3808 36.4588 15.4087 37.8552 15.6219C39.2516 15.835 40.2236 17.1573 40.0105 18.5537C39.9095 19.2153 39.5595 19.7803 39.0746 20.1694L39.0741 20.1698C38.5321 20.6031 37.8169 20.8217 37.0787 20.709C35.6823 20.4958 34.7102 19.1736 34.9234 17.7772ZM37.7539 16.2855C36.724 16.1283 35.7443 16.8486 35.5871 17.8785C35.4299 18.9083 36.1501 19.8881 37.18 20.0453C37.7222 20.1281 38.2506 19.9685 38.6547 19.6455C39.0156 19.3558 39.2726 18.9385 39.3468 18.4524C39.504 17.4225 38.7837 16.4427 37.7539 16.2855Z" fill="#0090DD"/>
<path fill-rule="evenodd" clip-rule="evenodd" d="M32.6544 22.7587C32.6544 22.7587 33.0455 22.3941 33.5331 21.9155C34.39 21.0737 35.5389 19.8972 35.5389 19.8972L35.1621 19.4557C35.1621 19.4557 33.8209 20.4082 32.8548 21.122C32.3072 21.53 31.8857 21.8596 31.8857 21.8596L32.6544 22.7587Z" fill="#0090DD"/>
<path fill-rule="evenodd" clip-rule="evenodd" d="M23.9711 15.5868C22.0345 15.5868 20.4365 17.1847 20.4365 19.1214V22.656H27.5057V19.1214C27.5057 17.1847 25.9077 15.5868 23.9711 15.5868ZM28.6093 22.656V19.1214C28.6093 16.5752 26.5172 14.4832 23.9711 14.4832C21.4249 14.4832 19.3329 16.5752 19.3329 19.1214V22.656H17.676C16.8982 22.656 16.2681 23.2862 16.2681 24.0639V29.0902H17.3717V24.0639C17.3717 23.8957 17.5077 23.7596 17.676 23.7596H30.2662C30.4344 23.7596 30.5705 23.8957 30.5705 24.0639V32.5678C30.5705 32.736 30.4344 32.8721 30.2662 32.8721H21.8012V33.9757H30.2662C31.0439 33.9757 31.6741 33.3455 31.6741 32.5678V24.0639C31.6741 23.2862 31.0439 22.656 30.2662 22.656H28.6093Z" fill="#22B638"/>
<path fill-rule="evenodd" clip-rule="evenodd" d="M11.7542 33.8818C12.0406 31.7016 14.0671 30.1456 16.2473 30.4319C17.752 30.6296 18.9582 31.6559 19.4668 32.9837M16.1191 31.4076C14.4778 31.192 12.9454 32.3686 12.7299 34.0099C12.5143 35.6513 13.6908 37.1836 15.3322 37.3992C16.9735 37.6148 18.5059 36.4383 18.7215 34.7969C18.7884 34.2869 18.7217 33.7886 18.5481 33.3364L18.548 33.336C18.162 32.3281 17.248 31.5559 16.1191 31.4076ZM19.4669 32.9841C19.6972 33.5841 19.7861 34.2473 19.6971 34.9251C19.4108 37.1053 17.3842 38.6613 15.204 38.3749C13.0238 38.0885 11.4678 36.062 11.7542 33.8818" fill="#0090DD"/>
<path fill-rule="evenodd" clip-rule="evenodd" d="M23.0332 27.905C23.0332 27.905 20.8767 29.1907 19.328 30.1909C18.4509 30.7568 17.7876 31.2321 17.7876 31.2321L19.1626 32.9893C19.1626 32.9893 19.7811 32.4576 20.5423 31.7433C21.8851 30.4802 23.6545 28.6972 23.6545 28.6972L23.0332 27.905Z" fill="#0090DD"/>
</g>
<defs>
<clipPath id="clip0_33_134">
<rect width="48" height="48" fill="white"/>
</clipPath>
</defs>
</svg>
